<svg xmlns="http://www.w3.org/2000/svg" viewBox="0 0 1200 675" width="1200" height="675">
  <rect width="1200" height="675" fill="#f8f5ee"/>

  <rect x="40" y="40" width="1120" height="595" fill="none" stroke="#0a0a0a" stroke-width="2"/>
  <text x="80" y="110" font-family="Helvetica Neue, sans-serif" font-size="22" font-weight="700" fill="#b8121a" letter-spacing="6">K-BIO · IPO RUSH · 2026</text>

  <text x="80" y="220" font-family="Helvetica Neue, sans-serif" font-size="200" font-weight="900" fill="#0a0a0a" letter-spacing="-5">962<tspan font-size="120" fill="#b8121a">:1</tspan></text>
  <text x="80" y="270" font-family="Nanum Myeongjo, serif" font-size="28" font-style="italic" fill="#0a0a0a">Kanaph Therapeutics 기관 청약 경쟁률</text>

  <!-- DNA helix -->
  <g transform="translate(700,330)">
</svg>    <circle cx="80" cy="0" r="10" fill="#b8121a"/>
    <circle cx="240" cy="16" r="10" fill="#0a0a0a"/>
    <line x1="80" y1="0" x2="240" y2="16" stroke="#0a0a0a" stroke-width="2"/>
    <circle cx="80" cy="32" r="10" fill="#b8121a"/>
    <circle cx="240" cy="48" r="10" fill="#0a0a0a"/>
    <line x1="80" y1="32" x2="240" y2="48" stroke="#0a0a0a" stroke-width="2"/>
    <circle cx="80" cy="64" r="10" fill="#b8121a"/>
    <circle cx="240" cy="80" r="10" fill="#0a0a0a"/>
    <line x1="80" y1="64" x2="240" y2="80" stroke="#0a0a0a" stroke-width="2"/>
    <circle cx="80" cy="96" r="10" fill="#b8121a"/>
    <circle cx="240" cy="112" r="10" fill="#0a0a0a"/>
    <line x1="80" y1="96" x2="240" y2="112" stroke="#0a0a0a" stroke-width="2"/>
    <circle cx="80" cy="128" r="10" fill="#b8121a"/>
    <circle cx="240" cy="144" r="10" fill="#0a0a0a"/>
    <line x1="80" y1="128" x2="240" y2="144" stroke="#0a0a0a" stroke-width="2"/>
    <circle cx="80" cy="160" r="10" fill="#b8121a"/>
    <circle cx="240" cy="176" r="10" fill="#0a0a0a"/>
    <line x1="80" y1="160" x2="240" y2="176" stroke="#0a0a0a" stroke-width="2"/>
    <circle cx="80" cy="192" r="10" fill="#b8121a"/>
    <circle cx="240" cy="208" r="10" fill="#0a0a0a"/>
    <line x1="80" y1="192" x2="240" y2="208" stroke="#0a0a0a" stroke-width="2"/>
    <circle cx="80" cy="224" r="10" fill="#b8121a"/>
    <circle cx="240" cy="240" r="10" fill="#0a0a0a"/>
    <line x1="80" y1="224" x2="240" y2="240" stroke="#0a0a0a" stroke-width="2"/>
  </g>

  <g transform="translate(80,430)">
    <rect x="0" y="0" width="500" height="100" fill="none" stroke="#0a0a0a" stroke-width="2"/>
    <text x="20" y="40" font-family="Helvetica Neue, sans-serif" font-size="14" font-weight="700" fill="#0a0a0a" letter-spacing="3">RELATED</text>
    <text x="20" y="72" font-family="Helvetica Neue, sans-serif" font-size="22" font-weight="700" fill="#0a0a0a">IM Biologics 839:1 · Adel ₩1.5T deal</text>
  </g>
</svg>