<svg xmlns="http://www.w3.org/2000/svg" viewBox="0 0 1200 675" width="1200" height="675">
  <rect width="1200" height="675" fill="#f8f5ee"/>

  <rect x="40" y="40" width="1120" height="595" fill="none" stroke="#0a0a0a" stroke-width="2"/>
  <text x="80" y="110" font-family="Helvetica Neue, sans-serif" font-size="22" font-weight="700" fill="#b8121a" letter-spacing="6">IPO · KOSDAQ LISTING · MAY 20, 2026</text>

  <text x="80" y="220" font-family="Helvetica Neue, sans-serif" font-size="100" font-weight="900" fill="#0a0a0a" letter-spacing="-3">MakinaRocks</text>
  <text x="80" y="270" font-family="Nanum Myeongjo, serif" font-size="32" font-style="italic" fill="#0a0a0a">산업용 AI, 코스닥 상장 — '실증의 시기'로</text>

  <!-- Gear icon -->
  <g transform="translate(820,380) scale(2.4)">
    <circle cx="50" cy="50" r="42" fill="none" stroke="#0a0a0a" stroke-width="6"/>
    <circle cx="50" cy="50" r="14" fill="#b8121a"/>

</svg>    <line x1="92.0" y1="50.0" x2="106.0" y2="50.0" stroke="#0a0a0a" stroke-width="8" stroke-linecap="round"/>
    <line x1="79.7" y1="79.7" x2="89.6" y2="89.6" stroke="#0a0a0a" stroke-width="8" stroke-linecap="round"/>
    <line x1="50.0" y1="92.0" x2="50.0" y2="106.0" stroke="#0a0a0a" stroke-width="8" stroke-linecap="round"/>
    <line x1="20.3" y1="79.7" x2="10.4" y2="89.6" stroke="#0a0a0a" stroke-width="8" stroke-linecap="round"/>
    <line x1="8.0" y1="50.0" x2="-6.0" y2="50.0" stroke="#0a0a0a" stroke-width="8" stroke-linecap="round"/>
    <line x1="20.3" y1="20.3" x2="10.4" y2="10.4" stroke="#0a0a0a" stroke-width="8" stroke-linecap="round"/>
    <line x1="50.0" y1="8.0" x2="50.0" y2="-6.0" stroke="#0a0a0a" stroke-width="8" stroke-linecap="round"/>
    <line x1="79.7" y1="20.3" x2="89.6" y2="10.4" stroke="#0a0a0a" stroke-width="8" stroke-linecap="round"/>
  </g>

  <g transform="translate(80,360)">
    <rect x="0" y="0" width="200" height="80" fill="#0a0a0a"/>
    <text x="100" y="35" text-anchor="middle" font-family="Helvetica Neue, sans-serif" font-size="14" font-weight="700" fill="#f8f5ee" letter-spacing="3">PRICE</text>
    <text x="100" y="65" text-anchor="middle" font-family="Helvetica Neue, sans-serif" font-size="28" font-weight="900" fill="#f8f5ee">₩15,000</text>

    <rect x="220" y="0" width="200" height="80" fill="none" stroke="#0a0a0a" stroke-width="2"/>
    <text x="320" y="35" text-anchor="middle" font-family="Helvetica Neue, sans-serif" font-size="14" font-weight="700" fill="#0a0a0a" letter-spacing="3">SHARES</text>
    <text x="320" y="65" text-anchor="middle" font-family="Helvetica Neue, sans-serif" font-size="28" font-weight="900" fill="#0a0a0a">2.64M</text>

    <rect x="440" y="0" width="220" height="80" fill="#b8121a"/>
    <text x="550" y="35" text-anchor="middle" font-family="Helvetica Neue, sans-serif" font-size="14" font-weight="700" fill="#f8f5ee" letter-spacing="3">RAISE</text>
    <text x="550" y="65" text-anchor="middle" font-family="Helvetica Neue, sans-serif" font-size="28" font-weight="900" fill="#f8f5ee">₩39.5B</text>
  </g>
</svg>